<?xml version="1.0" encoding="UTF-8"?>
<svg width="38px" height="54px" viewBox="0 0 38 54" version="1.1" xmlns="http://www.w3.org/2000/svg" xmlns:xlink="http://www.w3.org/1999/xlink">
    <!-- Generator: Sketch 49.1 (51147) - http://www.bohemiancoding.com/sketch -->
    <title>favourites</title>
    <desc>Created with Sketch.</desc>
    <defs></defs>
    <g id="Page-1" stroke="none" stroke-width="1" fill="none" fill-rule="evenodd">
        <g id="favourites" fill="#000000" fill-rule="nonzero">
            <path d="M38,28.1316923 L38,48.4295385 C38,49.6040308 37.1914769,50.8615385 35.9889231,50.8615385 L26.3626462,50.8615385 C26.3047692,51.9986154 25.5588,53.2 24.4071077,53.2 L13.6221231,53.2 C12.4716,53.2 11.7320615,51.9986154 11.6741846,50.8615385 L1.91753846,50.8615385 C0.717323077,50.8615385 0,49.6250769 0,48.4295385 L0,28.1316923 C0,24.1592308 0.651261538,21.0905846 2.58166154,15.9336923 C4.05255385,11.9933846 4.48633846,7.17206154 4.60676923,5.1908 C4.45769231,5.11187692 4.32849231,5.02126154 4.23086154,4.87686154 C4.03676923,4.58864615 3.99818462,4.27295385 4.12796923,3.95024615 L4.34661538,3.50769231 L4.1192,3.50769231 C3.92101538,3.50769231 3.73627692,3.28846154 3.62812308,3.12184615 C3.51996923,2.95523077 3.50476923,2.62667692 3.58603077,2.44603077 L4.2332,0.965784615 C4.47464615,0.429692308 5.01015385,0 5.59827692,0 L9.13227692,0 C9.7204,0 10.2559077,0.454246154 10.4973538,0.990338462 L11.1439385,2.53664615 C11.2252,2.71787692 11.2088308,2.97627692 11.1018462,3.14289231 C10.9942769,3.30950769 10.8089538,3.50769231 10.6107692,3.50769231 L10.3833538,3.50769231 L10.6014154,3.95024615 C10.7317846,4.27295385 10.6926154,4.53953846 10.4985231,4.82775385 C10.3780923,5.00606154 10.2050462,5.13292308 10.0103692,5.20950769 C10.0594769,6.05193846 10.1927692,7.83326154 10.5172308,9.93846154 L10.5230769,9.93846154 L10.5230769,9.97470769 C10.8393538,12.0161846 11.3356923,14.3564 12.1114769,16.4341231 C12.6107385,17.7758154 13.0170462,18.9573231 13.3514462,20.0365231 C13.5847077,19.3531077 13.8401846,18.6398769 14.1254769,17.8746154 C15.5987077,13.9290462 16.0757538,9.05101538 16.2178154,7.00135385 C16.1207692,6.93061538 16.0319077,6.85578462 15.9629231,6.75347692 C15.7676615,6.46467692 15.7296615,6.11156923 15.8594462,5.78769231 L16.0821846,5.26153846 L15.8448308,5.26153846 C15.6466462,5.26153846 15.4619077,5.17150769 15.3537538,5.00489231 C15.2456,4.83827692 15.2304,4.63950769 15.3116615,4.45827692 L15.9646769,2.49513846 C16.2090462,1.95553846 16.7468923,1.75384615 17.3373538,1.75384615 L20.9035077,1.75384615 C21.4951385,1.75384615 22.0335692,1.96255385 22.2761846,2.50156923 L22.9292,4.39864615 C23.0104615,4.57987692 22.9946769,4.80203077 22.8871077,4.96864615 C22.7795385,5.13526154 22.5936308,5.26153846 22.3960308,5.26153846 L22.1586769,5.26153846 L22.3814154,5.78886154 C22.5123692,6.11273846 22.4732,6.45298462 22.2779385,6.74236923 C22.1633538,6.91132308 22.002,7.03526154 21.8196,7.1136 C21.9710154,9.22698462 22.4574154,14.0027077 23.9031692,17.8752 C24.1615692,18.5662154 24.3965846,19.2221538 24.6117231,19.8453538 C24.9303385,18.8281231 25.3179385,17.7173538 25.7949846,16.4452308 C27.4137846,12.1103077 27.8171692,6.65701538 27.9019385,5.12824615 C27.7926154,5.05458462 27.6920615,4.99027692 27.6160615,4.87686154 C27.4219692,4.58864615 27.3833846,4.27295385 27.5131692,3.95024615 L27.7312308,3.50769231 L27.5038154,3.50769231 C27.3056308,3.50769231 27.0612615,3.36972308 26.9531077,3.20310769 C26.8449538,3.03649231 26.8893846,2.62667692 26.9706462,2.44603077 L27.6178154,0.965784615 C27.8592615,0.429692308 28.3947692,0 28.9828923,0 L32.5168923,0 C33.1050154,0 33.6405231,0.454246154 33.8819692,0.990338462 L34.5285538,2.53664615 C34.6098154,2.71787692 34.6478154,3.03649231 34.5408308,3.20369231 C34.4332615,3.36972308 34.1935692,3.50769231 33.9953846,3.50769231 L33.7679692,3.50769231 L33.9860308,3.95024615 C34.1164,4.27295385 34.0772308,4.53953846 33.8831385,4.82775385 C33.7422462,5.03587692 33.5335385,5.18086154 33.2979385,5.24633846 C33.4417538,7.27787692 33.9164615,12.0354769 35.3663077,15.9214154 C37.3352923,21.1975692 38,24.2779077 38,28.1316923 Z M29.0635692,5.26153846 C29.0156308,6.43076923 28.8887692,7.87418462 28.5777538,9.93846154 L32.6601231,9.93846154 C32.3450154,7.99578462 32.1947692,6.43076923 32.1263692,5.26153846 L29.0635692,5.26153846 Z M27.4418462,15.1836308 L30.7384923,18.5691385 L33.8755385,15.1789538 C33.4452615,13.8284923 33.1167077,12.4324308 32.8659077,11.1076923 L28.3865846,11.1076923 C28.1544923,12.4213231 27.8475692,13.8191385 27.4418462,15.1836308 Z M28.4082154,2.33846154 L33.0921538,2.33846154 L32.8156308,1.54338462 C32.7630154,1.42587692 32.6455077,1.16923077 32.5168923,1.16923077 L28.9828923,1.16923077 C28.8542769,1.16923077 28.7367692,1.42587692 28.6841538,1.54338462 L28.4082154,2.33846154 Z M28.9922462,3.50769231 L28.6660308,4.09230769 L32.8331692,4.09230769 L32.5069538,3.50769231 L28.9922462,3.50769231 Z M17.3782769,7.01538462 C17.3069538,8.18461538 17.1602154,9.84375385 16.8661538,11.6923077 L21.1630769,11.6923077 C20.8696,9.84375385 20.7228615,8.18461538 20.6515385,7.01538462 L17.3782769,7.01538462 Z M15.6320308,17.0807077 L19.1093231,20.6351692 L22.3954462,17.0748615 C21.9534769,15.6782154 21.6184923,14.2312923 21.3647692,12.8615385 L16.6644615,12.8615385 C16.4101538,14.2330462 16.0745846,15.6823077 15.6320308,17.0807077 Z M16.7492308,4.09230769 L21.4910462,4.09230769 L21.2092615,3.00024615 C21.1554769,2.8804 21.0350462,2.92307692 20.9035077,2.92307692 L17.3373538,2.92307692 C17.2052308,2.92307692 17.0853846,2.8804 17.0310154,3.00083077 L16.7492308,4.09230769 Z M17.3437846,5.26153846 L17.0111385,5.84615385 L21.1724308,5.84615385 L20.8976615,5.26153846 L17.3437846,5.26153846 Z M4.06716923,15.1935692 L7.35387692,18.5691385 L10.4692923,15.2023385 C10.0612308,13.832 9.75255385,12.4271692 9.51987692,11.1076923 L5.06978462,11.1076923 C4.82366154,12.4371077 4.49803077,13.8384308 4.06716923,15.1935692 Z M9.32812308,9.93846154 C9.01710769,7.87418462 8.89024615,6.43076923 8.84230769,5.26153846 L5.77307692,5.26153846 C5.71227692,6.43076923 5.57372308,7.99695385 5.26855385,9.93846154 L9.32812308,9.93846154 Z M5.0236,2.33846154 L9.70753846,2.33846154 L9.43101538,1.54338462 C9.3784,1.42587692 9.26089231,1.16923077 9.13227692,1.16923077 L5.59827692,1.16923077 C5.46966154,1.16923077 5.35215385,1.42587692 5.29953846,1.54338462 L5.0236,2.33846154 Z M5.60763077,3.50769231 L5.28141538,4.09230769 L9.44855385,4.09230769 L9.12233846,3.50769231 L5.60763077,3.50769231 Z M1.91753846,49.6923077 L11.6923077,49.6923077 L11.6923077,30.2620308 C11.6923077,27.4687385 11.9197231,25.0817538 12.8229538,22.0364923 C12.4330154,20.5539077 11.7776615,18.8889231 11.0159077,16.8421846 C10.9697231,16.7188308 10.9258769,16.5943077 10.8814462,16.4697846 L7.79467692,19.7553231 C7.68535385,19.8728308 7.51698462,19.9745538 7.35621538,19.9745538 C7.35329231,19.9745538 7.35913846,19.9745538 7.35621538,19.9745538 C7.19836923,19.9745538 7.05689231,19.8810154 6.9464,19.7676 L3.64566154,16.4136615 C1.79593846,21.3717846 1.16923077,24.3392923 1.16923077,28.1316923 L1.16923077,48.4295385 C1.16923077,49.0264308 1.47615385,49.6923077 1.91753846,49.6923077 Z M25.1384615,30.2620308 C25.1384615,27.4932923 24.9139692,25.1291077 23.9704,22.0359077 C23.9704,22.0359077 23.3092,19.6243692 22.8292308,18.3364615 L19.5501231,21.9511385 C19.4408,22.0680615 19.2888,22.2153846 19.1286154,22.2153846 C19.1256923,22.2153846 19.1233538,22.2153846 19.1204308,22.2153846 C18.9625846,22.2153846 18.8193538,22.0739077 18.7088615,21.9604923 L15.2134462,18.3370462 C14.7007385,19.7132308 14.3265846,20.7491692 13.9518462,22.0610462 C13.7782154,22.6713846 12.8615385,26.4357231 12.8615385,30.2620308 L12.8615385,50.7528 C12.8615385,51.2959077 13.0784308,52.0307692 13.6221231,52.0307692 L24.4071077,52.0307692 C24.9508,52.0307692 25.1384615,51.2959077 25.1384615,50.7522154 L25.1384615,30.2620308 Z M36.8307692,28.1316923 C36.8307692,24.4597231 36.1917846,21.4939692 34.3069846,16.4259385 L31.1792923,19.7547385 C31.0699692,19.8722462 30.9138769,19.9616923 30.7531077,19.9616923 C30.5876615,19.9616923 30.4257231,19.8804308 30.3152308,19.7670154 L27.0086462,16.4230154 C26.9595385,16.5633231 26.8776923,16.7030462 26.8256615,16.8421846 C26.0843692,18.8187692 25.4968308,20.4147692 25.1261846,21.8190154 C26.0791077,24.9689231 26.3076923,27.4026769 26.3076923,30.2620308 L26.3076923,49.6923077 L35.9889231,49.6923077 C36.4636308,49.6923077 36.8307692,49.0135692 36.8307692,48.4295385 L36.8307692,28.1316923 Z" id="Shape"></path>
        </g>
    </g>
</svg>