<?xml version="1.0" encoding="UTF-8"?>
<svg width="51px" height="45px" viewBox="0 0 51 45" version="1.1" xmlns="http://www.w3.org/2000/svg" xmlns:xlink="http://www.w3.org/1999/xlink">
    <!-- Generator: Sketch 49.1 (51147) - http://www.bohemiancoding.com/sketch -->
    <title>noun_1017756_cc</title>
    <desc>Created with Sketch.</desc>
    <defs></defs>
    <g id="Page-1" stroke="none" stroke-width="1" fill="none" fill-rule="evenodd">
        <g id="noun_1017756_cc" fill="#000000" fill-rule="nonzero">
            <path d="M49.9137,20.4 L47.464,20.4 C47.1200333,18.7 46.5380667,16.7977 45.5526333,14.1638333 C44.1716667,10.4629333 43.7937,5.88143333 43.7036,4.37466667 C43.8713333,4.30213333 44.0198,4.22223333 44.1252,4.06583333 C44.3065333,3.79723333 44.3428,3.5003 44.2215333,3.19883333 L44.0572,2.83333333 C44.3751,2.83333333 44.5541667,2.71036667 44.659,2.54886667 C44.7638333,2.38736667 44.7785667,2.17146667 44.6998,1.9958 L44.1286,0.767833333 C43.9070333,0.275966667 43.4163,0 42.8774,0 L39.7579,0 C39.219,0 38.7282667,0.269733333 38.5067,0.761033333 L37.9349333,2.00656667 C37.8561667,2.18166667 37.8714667,2.3987 37.9757333,2.5602 C38.08,2.7217 38.2596333,2.83333333 38.4517333,2.83333333 L38.4132,3.21583333 C38.2925,3.51616667 38.3287667,3.84313333 38.5101,4.11173333 C38.5752667,4.20863333 38.6602667,4.2789 38.7526333,4.34463333 C38.6738667,5.73296667 38.3112,10.3785 36.8979333,14.1661 C35.9119333,16.8005333 35.3305333,18.7 34.986,20.4 L31.5973333,20.4 C31.2533667,18.7 30.6714,16.7977 29.6859667,14.1638333 C28.305,10.4629333 27.9270333,5.88143333 27.8369333,4.37466667 C28.0046667,4.30213333 28.1531333,4.22223333 28.2585333,4.06583333 C28.4398667,3.79723333 28.4761333,3.5003 28.3548667,3.19883333 L28.1905333,2.83333333 C28.5084333,2.83333333 28.6875,2.71036667 28.7923333,2.54886667 C28.8971667,2.38736667 28.9119,2.17146667 28.8331333,1.9958 L28.2619333,0.767833333 C28.0403667,0.275966667 27.5496333,0 27.0107333,0 L23.8912333,0 C23.3523333,0 22.8616,0.269733333 22.6400333,0.761033333 L22.0682667,2.00656667 C21.9895,2.18166667 22.0048,2.3987 22.1090667,2.5602 C22.2133333,2.7217 22.3929667,2.83333333 22.5850667,2.83333333 L22.5465333,3.21583333 C22.4258333,3.51616667 22.4621,3.84313333 22.6434333,4.11173333 C22.7086,4.20863333 22.7936,4.2789 22.8859667,4.34463333 C22.8072,5.73296667 22.4445333,10.3785 21.0312667,14.1661 C20.0452667,16.8005333 19.4638667,18.7 19.1193333,20.4 L15.7306667,20.4 C15.3867,18.7 14.8047333,16.7977 13.8193,14.1638333 C12.4383333,10.4629333 12.0603667,5.88143333 11.9702667,4.37466667 C12.138,4.30213333 12.2864667,4.22223333 12.3918667,4.06583333 C12.5732,3.79723333 12.6094667,3.5003 12.4882,3.19883333 L12.3238667,2.83333333 C12.6417667,2.83333333 12.8208333,2.71036667 12.9256667,2.54886667 C13.0305,2.38736667 13.0452333,2.17146667 12.9664667,1.9958 L12.3952667,0.767833333 C12.1737,0.275966667 11.6829667,0 11.1440667,0 L8.02456667,0 C7.48566667,0 6.99493333,0.269733333 6.77336667,0.761033333 L6.2016,2.00656667 C6.12283333,2.18166667 6.13813333,2.3987 6.2424,2.5602 C6.34666667,2.7217 6.5263,2.83333333 6.7184,2.83333333 L6.67986667,3.21583333 C6.55916667,3.51616667 6.59543333,3.84313333 6.77676667,4.11173333 C6.84193333,4.20863333 6.92693333,4.2789 7.0193,4.34463333 C6.94053333,5.73296667 6.57786667,10.3785 5.1646,14.1661 C4.1786,16.8005333 3.5972,18.7 3.25266667,20.4 L0.796733333,20.4 C0.371733333,20.4 0,20.7541667 0,21.2341333 L0,43.35 C0,43.9166667 0.554766667,44.2 0.867566667,44.2 L50.0259,44.2 C50.5925667,44.2 51,43.6866 51,43.1907667 L51,21.4863 C51,20.8958333 50.5988,20.4 49.9137,20.4 Z M42.5719667,4.53333333 C42.6156,5.1 42.7255333,6.7507 42.9856333,8.5 L39.4643667,8.5 C39.7244667,6.7507 39.8344,5.1 39.8780333,4.53333333 L42.5719667,4.53333333 Z M39.2796333,9.63333333 L43.1698,9.63333333 C43.3743667,10.7893333 43.6446667,12.0195667 44.0011,13.2197667 L41.3060333,16.1369667 L38.4506,13.2129667 C38.8059,12.0144667 39.0756333,10.7870667 39.2796333,9.63333333 Z M39.5403,1.25176667 C39.5788333,1.16676667 39.6644,1.13333333 39.7579,1.13333333 L42.8774,1.13333333 C42.9709,1.13333333 43.0564667,1.16676667 43.095,1.25176667 L43.3063667,1.7 L39.3283667,1.7 L39.5403,1.25176667 Z M42.8349,2.83333333 L43.0819667,3.4 L39.5533333,3.4 L39.8004,2.83333333 L42.8349,2.83333333 Z M37.9587333,14.5599333 C37.9904667,14.4743667 38.0210667,14.4539667 38.0522333,14.3678333 L40.9116333,17.3411333 C41.0187333,17.4505 41.1649333,17.5666667 41.3173667,17.5666667 C41.4805667,17.5666667 41.6279,17.4771333 41.7338667,17.3632333 L44.4057,14.4556667 C44.4346,14.535 44.4623667,14.4817333 44.4918333,14.5605 C45.4138,17.0266333 45.9742333,19.2666667 46.3114,20.4 L36.1386,20.4 C36.4757667,19.2666667 37.0362,17.0260667 37.9587333,14.5599333 Z M26.7053,4.53333333 C26.7489333,5.1 26.8588667,6.7507 27.1189667,8.5 L23.5977,8.5 C23.8578,6.7507 23.9677333,5.1 24.0113667,4.53333333 L26.7053,4.53333333 Z M23.4129667,9.63333333 L27.3031333,9.63333333 C27.5077,10.7893333 27.778,12.0195667 28.1338667,13.2197667 L25.4388,16.1369667 L22.5833667,13.2129667 C22.9392333,12.0144667 23.2089667,10.7870667 23.4129667,9.63333333 Z M23.6736333,1.25176667 C23.7121667,1.16676667 23.7977333,1.13333333 23.8912333,1.13333333 L27.0107333,1.13333333 C27.1042333,1.13333333 27.1898,1.16676667 27.2283333,1.25176667 L27.4397,1.7 L23.4617,1.7 L23.6736333,1.25176667 Z M26.9682333,2.83333333 L27.2153,3.4 L23.6866667,3.4 L23.9337333,2.83333333 L26.9682333,2.83333333 Z M22.0920667,14.5599333 C22.1238,14.4743667 22.1544,14.4539667 22.1855667,14.3678333 L25.0449667,17.3411333 C25.1520667,17.4505 25.2982667,17.5666667 25.4507,17.5666667 C25.6139,17.5666667 25.7612333,17.4771333 25.8672,17.3632333 L28.5390333,14.4556667 C28.5673667,14.535 28.5957,14.4817333 28.6251667,14.5605 C29.5471333,17.0266333 30.1075667,19.2666667 30.4447333,20.4 L20.2719333,20.4 C20.6091,19.2666667 21.1695333,17.0260667 22.0920667,14.5599333 Z M10.8386333,4.53333333 C10.8822667,5.1 10.9922,6.7507 11.2523,8.5 L7.73103333,8.5 C7.99113333,6.7507 8.10106667,5.1 8.1447,4.53333333 L10.8386333,4.53333333 Z M7.5463,9.63333333 L11.4364667,9.63333333 C11.6410333,10.7893333 11.9113333,12.0195667 12.2672,13.2197667 L9.57213333,16.1369667 L6.7167,13.2129667 C7.07256667,12.0144667 7.3423,10.7870667 7.5463,9.63333333 Z M7.80696667,1.25176667 C7.8455,1.16676667 7.93106667,1.13333333 8.02456667,1.13333333 L11.1440667,1.13333333 C11.2375667,1.13333333 11.3231333,1.16676667 11.3616667,1.25176667 L11.5730333,1.7 L7.59503333,1.7 L7.80696667,1.25176667 Z M11.1015667,2.83333333 L11.3486333,3.4 L7.82,3.4 L8.06706667,2.83333333 L11.1015667,2.83333333 Z M6.2254,14.5599333 C6.25713333,14.4743667 6.28773333,14.4539667 6.3189,14.3678333 L9.1783,17.3411333 C9.2854,17.4505 9.4316,17.5666667 9.58403333,17.5666667 C9.74723333,17.5666667 9.89456667,17.4771333 10.0005333,17.3632333 L12.6723667,14.4556667 C12.7007,14.535 12.7290333,14.4817333 12.7585,14.5605 C13.6804667,17.0266333 14.2409,19.2666667 14.5780667,20.4 L4.40526667,20.4 C4.74243333,19.2666667 5.30286667,17.0260667 6.2254,14.5599333 Z M1.13333333,43.0666667 L1.13333333,36.2666667 L1.13333333,35.1333333 L1.13333333,29.4666667 L1.13333333,28.3333333 L1.13333333,21.5333333 L49.8666667,21.5333333 L49.8666667,35.381672 C49.8666667,35.7999322 49.8666667,35.4876388 49.8666667,36.0187281 C49.8666667,36.5498175 49.8666667,36.2666667 49.8666667,36.2666667 L49.8666667,43.0666667 L1.13333333,43.0666667 Z" id="Shape"></path>
        </g>
    </g>
</svg>