<?xml version="1.0" encoding="UTF-8"?>
<svg width="16px" height="55px" viewBox="0 0 16 55" version="1.1" xmlns="http://www.w3.org/2000/svg" xmlns:xlink="http://www.w3.org/1999/xlink">
    <!-- Generator: Sketch 49.1 (51147) - http://www.bohemiancoding.com/sketch -->
    <title>noun_1077408_cc</title>
    <desc>Created with Sketch.</desc>
    <defs></defs>
    <g id="Page-1" stroke="none" stroke-width="1" fill="none" fill-rule="evenodd">
        <g id="noun_1077408_cc" fill="#000000" fill-rule="nonzero">
            <g id="limitededition">
                <path d="M12.6274909,16.8427636 C10.9590982,12.3739636 10.5797236,6.75665455 10.4777018,5.00273455 C10.6841891,4.92331636 10.9010618,4.78952727 11.0287418,4.60075636 C11.2327855,4.29835636 11.2902109,3.94280727 11.1533673,3.60497455 L10.9371055,3.05454545 L11.1851345,3.05454545 C11.3922327,3.05454545 11.58528,2.92258909 11.6982982,2.74848 C11.8113164,2.57437091 11.8272,2.34161455 11.7422836,2.15284364 L11.0598982,0.781352727 C10.80576,0.218094545 10.2437236,0 9.62548364,0 L5.89893818,0 C5.28192,0 4.71927273,0.210763636 4.46452364,0.774632727 L3.78213818,2.21515636 C3.69722182,2.40453818 3.71371636,2.61224727 3.82612364,2.78635636 C3.93853091,2.96046545 4.1328,3.05454545 4.33989818,3.05454545 L4.58792727,3.05454545 L4.35517091,3.60497455 C4.21893818,3.94341818 4.25925818,4.31179636 4.46330182,4.61419636 C4.54394182,4.73393455 4.65024,4.82129455 4.76692364,4.89888 C4.67773091,6.51168 4.36738909,12.27744 2.66112,16.8464291 C0.583418182,22.4069236 0,25.6710109 0,29.7903709 L0,52.4245527 C0,53.6665309 0.775243636,54.9818182 2.01661091,54.9818182 L13.2866618,54.9818182 C14.52864,54.9818182 15.2727273,53.6665309 15.2727273,52.4239418 L15.2727273,29.78976 C15.2727273,25.6710109 14.7045818,22.4032582 12.6274909,16.8427636 Z M9.32369455,4.88727273 C9.37195636,6.10909091 9.49902545,7.69073455 9.80386909,9.77454545 L5.49940364,9.77454545 C5.80485818,7.69073455 5.93131636,6.10909091 5.98018909,4.88727273 L9.32369455,4.88727273 Z M5.30513455,10.9963636 L9.99874909,10.9963636 C10.2492218,12.4564364 10.5876655,14.0252509 11.0440145,15.5519127 L7.75121455,19.1196218 L4.26048,15.5519127 C4.71560727,14.0252509 5.05405091,12.4564364 5.30513455,10.9963636 Z M5.57882182,1.30306909 C5.63624727,1.17722182 5.76148364,1.22181818 5.89893818,1.22181818 L9.62548364,1.22181818 C9.76354909,1.22181818 9.88939636,1.17722182 9.94498909,1.30245818 L10.2400582,1.83272727 L5.28436364,1.83272727 L5.57882182,1.30306909 Z M9.61937455,3.05454545 L9.96698182,3.66545455 L5.55805091,3.66545455 L5.90565818,3.05454545 L9.61937455,3.05454545 Z M3.68683636,17.2704 C3.73448727,17.14272 3.78030545,17.0138182 3.82612364,16.8849164 L7.3248,20.5051636 C7.44026182,20.6230691 7.59787636,20.7709091 7.76221091,20.7709091 C7.76526545,20.7709091 7.76770909,20.7709091 7.77076364,20.7709091 C7.93815273,20.7709091 8.09698909,20.61696 8.21122909,20.4941673 L11.4802036,16.8910255 C11.5254109,17.0174836 11.5700073,17.1445527 11.6170473,17.2697891 C13.5334691,22.4002036 14.2433455,25.5078982 14.3111564,29.1910691 C12.6311564,26.7352145 10.2870982,25.3221818 7.74082909,25.3221818 C5.12064,25.3221818 2.67883636,26.8653382 0.990894545,29.4684218 C1.02693818,25.6630691 1.72337455,22.5284945 3.68683636,17.2704 Z M1.22181818,32.1161018 C2.44363636,28.6772945 4.94469818,26.544 7.72494545,26.544 C10.4062255,26.544 12.8290909,28.47264 14.0509091,31.7067927 L14.0509091,43.5694255 C12.8290909,46.8029673 10.4068364,48.7316073 7.72494545,48.7316073 C4.94530909,48.7316073 2.44363636,46.5983127 1.22181818,43.1595055 L1.22181818,32.1161018 Z M13.2866618,53.76 L2.01661091,53.76 C1.44846545,53.76 1.22181818,52.9920873 1.22181818,52.4239418 L1.22181818,45.8016873 C2.44363636,48.4084364 5.10292364,49.9534255 7.72494545,49.9534255 C10.2742691,49.9534255 12.8290909,48.5361164 14.0509091,46.0747636 L14.0509091,52.4239418 C14.0509091,52.9920873 13.8548073,53.76 13.2866618,53.76 Z" id="Shape"></path>
                <path d="M12.4873049,35.5766751 C12.4349599,35.4105209 12.2955216,35.2895772 12.127572,35.2643328 L9.35061167,34.8484884 L8.10858628,32.2558866 C8.03352126,32.0991417 7.87871357,32 7.70920473,32 C7.53969588,32 7.38466545,32.0991417 7.30982318,32.2558866 L6.06779778,34.8484884 L3.29061475,35.2643328 C3.12288787,35.2893477 2.98344958,35.4105209 2.93088179,35.5766751 C2.87853674,35.7428293 2.92219474,35.9252776 3.04359069,36.0471393 L5.05297216,38.0650863 L4.57852559,40.9147222 C4.55001424,41.0868432 4.61861966,41.2608002 4.75560776,41.3636138 C4.8928186,41.466198 5.07480116,41.4797381 5.22470845,41.398497 L7.70853649,40.053199 L10.1930328,41.3987265 C10.258297,41.4340687 10.3293526,41.4515103 10.4004082,41.4515103 C10.4928474,41.4515103 10.5846182,41.4219055 10.6623562,41.3638433 C10.799567,41.2610297 10.8681725,41.0870727 10.8394384,40.9149517 L10.3649918,38.0653158 L12.3743733,36.0473688 C12.495992,35.9252776 12.53965,35.7428293 12.4873049,35.5766751 Z M9.57536124,37.5762626 C9.47044841,37.6816006 9.42233552,37.8337556 9.44728294,37.9824682 L9.80879787,40.1532587 L7.9165802,39.1283353 C7.85176144,39.0932226 7.78048309,39.0755515 7.70920473,39.0755515 C7.63792637,39.0755515 7.56664801,39.0932226 7.50182925,39.1283353 L5.60961159,40.1532587 L5.97112651,37.9824682 C5.99585119,37.8337556 5.94796104,37.6816006 5.84304821,37.5762626 L4.31212272,36.039107 L6.42775349,35.7224043 C6.5727604,35.7008318 6.69816577,35.6069684 6.76320727,35.471337 L7.70942747,33.4963055 L8.65564768,35.471337 C8.72068918,35.6067389 8.8458718,35.7008318 8.99110145,35.7224043 L11.1062867,36.039107 L9.57536124,37.5762626 Z" id="Shape" stroke="#FFFFFF" stroke-width="0.1"></path>
            </g>
        </g>
    </g>
</svg>